<svg width="83" height="81" viewBox="0 0 83 81" fill="none" xmlns="http://www.w3.org/2000/svg">
<g clip-path="url(#clip0)">
<path d="M57.8801 30.8087C57.0821 30.8108 56.2864 30.8977 55.5066 31.0678L52.433 23.608L43.1574 1.08934C43.025 0.768015 42.8007 0.493301 42.5128 0.300053C42.2248 0.106805 41.8863 0.00366211 41.54 0.00366211C41.1936 0.00366211 40.8551 0.106805 40.5672 0.300053C40.2793 0.493301 40.0549 0.768015 39.9225 1.08934L29.7995 25.6636L27.4715 31.3142C24.6572 30.4356 21.6126 30.6931 18.9844 32.0321C16.3561 33.371 14.351 35.6858 13.3949 38.4851C12.4387 41.2844 12.6068 44.3477 13.8635 47.0246C15.1202 49.7014 17.3664 51.781 20.1253 52.8218C20.4545 52.9467 20.8193 52.9379 21.1422 52.7974C21.465 52.6568 21.7207 52.3956 21.855 52.069L28.8936 34.9825C28.9925 35.05 29.0913 35.1205 29.1902 35.193L51.2017 51.36C52.6459 52.418 54.3191 53.1177 56.0844 53.4017C57.8496 53.6856 59.6567 53.5458 61.3578 52.9937C63.0589 52.4417 64.6057 51.4931 65.8715 50.2255C67.1374 48.9579 68.0863 47.4073 68.6408 45.7007C69.1953 43.9941 69.3394 42.18 69.0615 40.4066C68.7836 38.6333 68.0915 36.9512 67.0418 35.4981C65.9922 34.0449 64.6149 32.8621 63.0225 32.0461C61.4301 31.2302 59.6679 30.8044 57.8801 30.8037V30.8087ZM19.887 49.7155C18.0558 48.6761 16.6666 47 15.981 45.0032C15.2954 43.0063 15.3609 40.8266 16.1651 38.8749C16.9693 36.9232 18.4568 35.3343 20.3471 34.4077C22.2373 33.481 24.3999 33.2807 26.4271 33.8445L19.887 49.7155ZM29.9439 32.4293L33.2796 24.3309L35.8973 17.9754L46.9857 44.8873L30.7923 32.9934C30.5128 32.7901 30.2287 32.6007 29.9399 32.4253L29.9439 32.4293ZM52.8038 49.1634L51.1918 47.9786L37.364 14.4132L41.5374 4.28393L50.0743 25.0081L60.5356 50.4017C59.2414 50.8255 57.8654 50.9342 56.5211 50.7191C55.1768 50.504 53.9027 49.9711 52.8038 49.1644V49.1634ZM62.9535 49.1514L56.5639 33.6398C57.0035 33.5688 57.4478 33.5316 57.893 33.5287C59.7084 33.5301 61.4767 34.1081 62.9451 35.1799C64.4135 36.2517 65.5067 37.7623 66.0682 39.4958C66.6297 41.2292 66.6308 43.0966 66.0713 44.8307C65.5119 46.5648 64.4206 48.0769 62.9535 49.1505V49.1514Z" fill="url(#paint0_linear)"/>
<path d="M6.10197 66.9373L0 81.0001H2.14707L3.55241 77.6871H10.6889L12.0952 81.0001H14.2224L8.14026 66.9373H6.10197ZM7.1117 69.2512C7.13049 69.2968 7.15032 69.3424 7.17109 69.3891L9.90053 75.8173H4.34158L7.05242 69.3911C7.0722 69.3434 7.09291 69.2968 7.1117 69.2512Z" fill="url(#paint1_linear)"/>
<path d="M21.6247 66.9373H19.6467V81.0001H29.2013V79.0913H21.6256L21.6247 66.9373Z" fill="url(#paint2_linear)"/>
<path d="M43.8616 67.8928C42.5862 67.1874 41.1391 66.8563 39.6853 66.9373H34.8501V81.0001H36.828V76.134H39.6853C41.1391 76.2151 42.5862 75.8841 43.8616 75.1788C44.4187 74.7499 44.87 74.1981 45.1806 73.566C45.4912 72.9339 45.6527 72.2387 45.6527 71.5338C45.6527 70.829 45.4912 70.1335 45.1806 69.5014C44.87 68.8693 44.4187 68.3175 43.8616 67.8886V67.8928ZM43.6549 71.5372C43.6549 73.3992 42.4543 74.2293 39.7633 74.2293H36.828V68.8461H39.7633C40.7225 68.7845 41.6818 68.9678 42.5513 69.3792C42.92 69.5969 43.2195 69.9153 43.4149 70.2973C43.6103 70.6794 43.6935 71.1095 43.6549 71.5372Z" fill="url(#paint3_linear)"/>
<path d="M61.4001 72.995H53.6366V66.9373H51.6587V81.0001H53.6366V74.9036H61.4001V81.0001H63.378V66.9373H61.4001V72.995Z" fill="url(#paint4_linear)"/>
<path d="M76.9177 66.9373H74.8806L68.7776 81.0001H70.9248L72.33 77.6871H79.4674L80.8726 81.0001H83L76.9177 66.9373ZM75.8894 69.2512C75.9082 69.2968 75.9278 69.3424 75.9486 69.3891L78.6781 75.8173H73.1193L75.829 69.3911C75.8508 69.3434 75.8696 69.2968 75.8894 69.2512Z" fill="url(#paint5_linear)"/>
</g>
<defs>
<linearGradient id="paint0_linear" x1="23.445" y1="20.5099" x2="89.3578" y2="80.1385" gradientUnits="userSpaceOnUse">
<stop stop-color="#C08F83"/>
<stop offset="1" stop-color="#8B5F5E"/>
</linearGradient>
<linearGradient id="paint1_linear" x1="-10.3113" y1="62.2543" x2="58.0647" y2="119.249" gradientUnits="userSpaceOnUse">
<stop stop-color="#C08F83"/>
<stop offset="1" stop-color="#8B5F5E"/>
</linearGradient>
<linearGradient id="paint2_linear" x1="-3.72366" y1="54.1119" x2="75.2492" y2="83.8264" gradientUnits="userSpaceOnUse">
<stop stop-color="#C08F83"/>
<stop offset="1" stop-color="#8B5F5E"/>
</linearGradient>
<linearGradient id="paint3_linear" x1="3.47942" y1="45.1515" x2="81.5087" y2="82.6578" gradientUnits="userSpaceOnUse">
<stop stop-color="#C08F83"/>
<stop offset="1" stop-color="#8B5F5E"/>
</linearGradient>
<linearGradient id="paint4_linear" x1="10.934" y1="35.9849" x2="87.2834" y2="79.2239" gradientUnits="userSpaceOnUse">
<stop stop-color="#C08F83"/>
<stop offset="1" stop-color="#8B5F5E"/>
</linearGradient>
<linearGradient id="paint5_linear" x1="17.008" y1="28.4472" x2="85.3838" y2="85.456" gradientUnits="userSpaceOnUse">
<stop stop-color="#C08F83"/>
<stop offset="1" stop-color="#8B5F5E"/>
</linearGradient>
<clipPath id="clip0">
<rect width="83" height="81" fill="white"/>
</clipPath>
</defs>
</svg>
